<?xml version="1.0" encoding="utf-8"?>
<!-- Generator: Adobe Illustrator 21.0.2, SVG Export Plug-In . SVG Version: 6.00 Build 0)  -->
<svg version="1.1" id="Layer_1" xmlns="http://www.w3.org/2000/svg" xmlns:xlink="http://www.w3.org/1999/xlink" x="0px" y="0px"
	 viewBox="0 0 1200 1200" style="enable-background:new 0 0 1200 1200;" xml:space="preserve">
<style type="text/css">
	.st0{display:none;fill:#1C3247;}
	.st1{fill:none;stroke:#FFFFFF;stroke-width:50;stroke-linecap:round;stroke-miterlimit:10;}
</style>
<rect y="0" class="st0" width="1200" height="1200"/>
<g>
	<path class="st1" d="M189.6,117.7c0,0-126.7,112.7-126.7,303.9s126.7,305.2,126.7,305.2"/>
	<path class="st1" d="M278.4,208.7c0,0-88.8,79-88.8,213.1s88.8,214.1,88.8,214.1"/>
	<path class="st1" d="M367.5,305.4c0,0-48.6,43.3-48.6,116.7s48.6,117.2,48.6,117.2"/>
</g>
<g>
	<path class="st1" d="M1010.4,117.7c0,0,126.7,112.7,126.7,303.9s-126.7,305.2-126.7,305.2"/>
	<path class="st1" d="M921.6,208.7c0,0,88.8,79,88.8,213.1s-88.8,214.1-88.8,214.1"/>
	<path class="st1" d="M832.5,305.4c0,0,48.6,43.3,48.6,116.7s-48.6,117.2-48.6,117.2"/>
</g>
<g>
	<circle class="st1" cx="600" cy="422.3" r="47.2"/>
	<line class="st1" x1="600" y1="483.7" x2="600" y2="1103.6"/>
</g>
</svg>
