<?xml version="1.0" encoding="utf-8"?>
<!-- Generator: Adobe Illustrator 21.0.2, SVG Export Plug-In . SVG Version: 6.00 Build 0)  -->
<svg version="1.1" id="Layer_1" xmlns="http://www.w3.org/2000/svg" xmlns:xlink="http://www.w3.org/1999/xlink" x="0px" y="0px"
	 viewBox="0 0 1200 1200" style="enable-background:new 0 0 1200 1200;" xml:space="preserve">
<style type="text/css">
	.st0{display:none;}
	.st1{display:inline;fill:#FFFFFF;}
	.st2{fill:#4DD8DB;}
	.st3{fill:#34CCD7;}
	.st4{fill:#2C3F49;}
	.st5{fill:#375968;}
	.st6{fill:#FBF0E3;}
	.st7{fill:#FFDECC;}
	.st8{fill:#E83931;}
	.st9{fill:#FFF0B3;}
</style>
<g class="st0">
	
		<ellipse transform="matrix(0.7783 -0.6279 0.6279 0.7783 156.4004 491.1495)" class="st1" cx="773.7" cy="24.1" rx="6.3" ry="6.3"/>
	<ellipse transform="matrix(0.7783 -0.6279 0.6279 0.7783 179.0779 505.175)" class="st1" cx="804.9" cy="-1" rx="6.3" ry="6.3"/>
	
		<ellipse transform="matrix(0.7783 -0.6279 0.6279 0.7783 133.7231 477.1237)" class="st1" cx="742.5" cy="49.2" rx="6.3" ry="6.3"/>
</g>
<g>
	<g>
		<polygon class="st2" points="155.2,220.4 271.2,147.6 229.4,155.6 180.7,186.2 		"/>
		
			<rect x="178" y="174.3" transform="matrix(0.8472 -0.5313 0.5313 0.8472 -88.1952 167.332)" class="st3" width="137.5" height="125.4"/>
		
			<rect x="260.6" y="283" transform="matrix(0.8472 -0.5313 0.5313 0.8472 -128.4368 212.2352)" class="st4" width="88.2" height="92.8"/>
	</g>
	<g>
		<polygon class="st2" points="1052.9,220.4 936.9,147.6 978.7,155.6 1027.4,186.2 		"/>
		
			<rect x="898.6" y="168.1" transform="matrix(0.5313 -0.8472 0.8472 0.5313 249.9439 925.4395)" class="st3" width="125.4" height="137.5"/>
		
			<rect x="857" y="285.2" transform="matrix(0.5313 -0.8472 0.8472 0.5313 144.4348 919.7487)" class="st4" width="92.8" height="88.2"/>
	</g>
	<rect x="532.2" y="159.8" class="st4" width="143.7" height="109.9"/>
	<circle class="st2" cx="604" cy="702.4" r="487.6"/>
	<path class="st3" d="M603.6,214.8c269.3,0,487.6,218.3,487.6,487.6S872.9,1190,603.6,1190"/>
	<polygon class="st5" points="775.1,117.1 433,117.1 532.2,159.8 675.9,159.8 	"/>
	<polygon class="st2" points="433,54.2 775.1,54.2 675.9,11.5 532.2,11.5 	"/>
	<rect x="433" y="54.2" class="st3" width="342.1" height="62.9"/>
	<circle class="st5" cx="604" cy="702.4" r="430.8"/>
	<path class="st6" d="M606.5,1111c-226.6,0-411-184.4-411-411s184.4-411,411-411s411,184.4,411,411S833.1,1111,606.5,1111z"/>
	<path class="st7" d="M606.6,1111.2c226.6,0,411-184.4,411-411s-184.4-411-411-411"/>
	<g>
		<path class="st8" d="M605.9,322.3c11.2,0,20.3,9.1,20.3,20.3V401c0,11.2-9.1,20.3-20.3,20.3s-20.3-9.1-20.3-20.3v-58.4
			C585.7,331.3,594.7,322.3,605.9,322.3z"/>
		<path class="st5" d="M605.9,969.2c11.2,0,20.3,9.1,20.3,20.3v58.4c0,11.2-9.1,20.3-20.3,20.3s-20.3-9.1-20.3-20.3v-58.4
			C585.7,978.3,594.7,969.2,605.9,969.2z"/>
	</g>
	<g>
		<path class="st8" d="M796,374.9c9.6,5.7,12.8,18.1,7.1,27.7l-29.7,50.2c-5.7,9.6-18.1,12.8-27.7,7.1c-9.6-5.7-12.8-18.1-7.1-27.7
			l29.7-50.2C774,372.4,786.4,369.2,796,374.9z"/>
		<path class="st5" d="M467.2,930c9.6,5.7,12.8,18.1,7.1,27.7l-29.7,50.2c-5.7,9.6-18.1,12.8-27.7,7.1c-9.6-5.7-12.8-18.1-7.1-27.7
			l29.7-50.2C445.2,927.5,457.6,924.3,467.2,930z"/>
	</g>
	<g>
		<path class="st5" d="M234.5,694.9c0-11.2,9.1-20.2,20.2-20.2H313c11.2,0,20.2,9.1,20.2,20.2s-9.1,20.2-20.2,20.2h-58.2
			C243.6,715.1,234.5,706.1,234.5,694.9z"/>
		<path class="st5" d="M879.7,694.9c0-11.2,9.1-20.2,20.2-20.2h58.2c11.2,0,20.2,9.1,20.2,20.2s-9.1,20.2-20.2,20.2h-58.2
			C888.8,715.1,879.7,706.1,879.7,694.9z"/>
	</g>
	<g>
		<path class="st5" d="M280.1,873.2c-5.4-9.8-1.7-22.1,8.1-27.5l51.2-28c9.8-5.4,22.1-1.7,27.5,8.1c5.4,9.8,1.7,22.1-8.1,27.5
			l-51.2,28C297.8,886.6,285.5,883,280.1,873.2z"/>
		<path class="st8" d="M846.3,563.9c-5.4-9.8-1.7-22.1,8.1-27.5l51.2-28c9.8-5.4,22.1-1.7,27.5,8.1s1.7,22.1-8.1,27.5l-51.2,28
			C864,577.3,851.7,573.7,846.3,563.9z"/>
	</g>
	<g>
		<path class="st5" d="M416.1,374.3c-9.6,5.7-12.8,18.1-7.1,27.8l29.8,50.3c5.7,9.6,18.1,12.8,27.8,7.1c9.6-5.7,12.8-18.1,7.1-27.8
			l-29.8-50.3C438.1,371.8,425.7,368.6,416.1,374.3z"/>
		<path class="st5" d="M745.5,930.4c-9.6,5.7-12.8,18.1-7.1,27.8l29.8,50.3c5.7,9.6,18.1,12.8,27.8,7.1c9.6-5.7,12.8-18.1,7.1-27.8
			l-29.9-50.3C767.5,927.9,755.1,924.7,745.5,930.4z"/>
	</g>
	<g>
		<path class="st5" d="M932.9,873.5c5.4-9.8,1.8-22.1-8.1-27.5l-51.3-28c-9.8-5.4-22.1-1.8-27.5,8.1c-5.4,9.8-1.8,22.1,8.1,27.5
			l51.3,28C915.2,886.9,927.5,883.3,932.9,873.5z"/>
		<path class="st5" d="M365.7,563.6c5.4-9.8,1.8-22.1-8.1-27.5l-51.3-28c-9.8-5.4-22.1-1.8-27.5,8.1c-5.4,9.8-1.8,22.1,8.1,27.5
			l51.3,28C348,577.1,360.3,573.5,365.7,563.6z"/>
	</g>
	<path class="st8" d="M775.9,594.2c-6.9-12.1-22.3-16.2-34.3-9.3l-81.5,46.7c-8.8-7.5-19.2-13.3-31.1-16.5
		c-43-11.7-87.4,13.8-99.1,56.7c-11.7,43,13.8,87.4,56.7,99.1c43,11.7,87.4-13.8,99.1-56.7c3.6-13.4,3.7-27,0.7-39.6l80.2-45.9
		C778.6,621.7,782.8,606.3,775.9,594.2z M598.6,726.9c-18.7-5.1-29.8-24.4-24.7-43.1s24.4-29.8,43.1-24.7s29.8,24.4,24.7,43.1
		C636.6,720.9,617.3,731.9,598.6,726.9z"/>
</g>
<circle class="st9" cx="608.6" cy="693.1" r="38"/>
</svg>
